# xmcd
#
# Track frame offsets: 
#        150
#        21205
#        39910
#        56108
#        74659
#        95526
#        117007
#        135314
#        152739
#        168494
#        189355
#
# Disc length: 2840 seconds
#
# Revision: 1
# Processed by: cddbd v1.5.2PL0 Copyright (c) Steve Scherf et al.
# Submitted via: ExactAudioCopy v0.99pb5
#
DISCID=8e0b160b
DTITLE=Cheo  Linares - Aqui He Llegado
DYEAR=1900
DGENRE=Salsa
TTITLE0=Aqui He Llegado
TTITLE1=Psicosis
TTITLE2=Morena Magica
TTITLE3=Ojos Que No Ven
TTITLE4=Te He Perdido
TTITLE5=Nino De La Calle
TTITLE6=Enamorarme De Nuevo
TTITLE7=Mas Salsa
TTITLE8=Nos Cansamos
TTITLE9=Mujer Venezolana
TTITLE10=Caminando
EXTD=
EXTT0=
EXTT1=
EXTT2=
EXTT3=
EXTT4=
EXTT5=
EXTT6=
EXTT7=
EXTT8=
EXTT9=
EXTT10=
PLAYORDER=
